<?xml version="1.0" encoding="utf-8"?>
<svg version="1.1" id="Layer_1" xmlns="http://www.w3.org/2000/svg" x="0px" y="0px"
     viewBox="0 0 568.73 568.73" style="enable-background:new 0 0 568.73 568.73;" xml:space="preserve">
<style type="text/css">
	.st0{fill:#3B95D0;}
	.st1{fill:none;stroke:#3B95D0;stroke-width:0.9059;stroke-miterlimit:10;}
</style>
    <path class="st0" d="M490.98,88.98C383.09-25.11,203.12-30.16,88.99,77.73C-25.14,185.63-30.15,365.63,77.75,479.72
	c107.89,114.13,287.9,119.17,401.99,11.25C593.86,383.08,598.87,203.11,490.98,88.98z M95.98,462.51
	C-2.41,358.44,2.16,194.35,106.24,95.97c63.08-59.64,148.24-81.45,227.41-66.18l-44.13,57.29c-20.24,26.27-43.38,50.13-69.01,71.16
	l-77.36,63.39l90.51,92.97c25.83,26.55,26.82,68.53,2.25,96.24l-52.58-64.03l2.42,13.39c3.03,16.87,2.18,34.18-2.42,50.64
	l-29.61,7.02v6.54c0,3.14-1.98,5.96-4.98,7.02l-29.1,10.12l17.99,29.27l116.72,8.72l151.82,33.84
	C305.66,566.86,178.01,549.24,95.98,462.51z M407.12,344.13c-16.83-17.89-17.89-45.97-1.43-64.2c4.46-4.98,10.05-9.1,16.63-11.93
	c-20.82-20.86-31.8-48.63-31.8-76.81c0-16.12,3.58-32.34,10.94-47.47l17.14-35.24c-40.21-1.94-71.29-35.17-71.29-74.67
	c0-0.34,0-0.65,0.03-0.99c46.38,11.55,90.14,36.09,125.41,73.4c87.79,92.83,93.61,233.54,19.87,332.64L407.12,344.13z"/>
    <circle class="st1" cx="284.36" cy="284.36" r="259.12"/>
</svg>
